# xmcd
#
# Track frame offsets:
# 150
# 16635
# 30709
# 56127
# 75716
# 93549
# 112561
# 133343
# 148541
# 173374
# 195724
# 213814
#
# Disc length: 2922 seconds
#
# Revision: 1
# Processed by: cddbd v1.5.2PL0 Copyright (c) Steve Scherf et al.
# Submitted via: CedeCatalogueitor 2.6.0.6 http://personales.ya.com/cdcatalogueitor
#
DISCID=940b680c
DTITLE=Frightened Rabbit - Liver! Lung! Fr!
DYEAR=1900
DGENRE=
TTITLE0=The Modern Leper
TTITLE1=I Feel Better
TTITLE2=Good Arms Vs Bad Arms
TTITLE3=Fast Bloon
TTITLE4=Old Old Fashioned
TTITLE5=The Twist
TTITLE6=Head Rolls Off
TTITLE7=My Backwards Walk
TTITLE8=Keep Yourself Warm
TTITLE9=Poke
TTITLE10=Floating In The Forth
TTITLE11=Who'd You Kill Now?
EXTD=
EXTT0=
EXTT1=
EXTT2=
EXTT3=
EXTT4=
EXTT5=
EXTT6=
EXTT7=
EXTT8=
EXTT9=
EXTT10=
EXTT11=
PLAYORDER=
